<svg xmlns="http://www.w3.org/2000/svg" viewBox="0 0 184.69 33.79"><title>Directgov</title><g fill="#fd9001"><path d="M0 .73h14.06s11.64.31 11.64 12.8c0 13.69-11.63 13.8-11.63 13.8H0V17.9h8.89v4.74l11.05-9.11L8.9 5.28v3.87H0zM28.29 0v5.51h7.97V0zm0 7.18v20.14h7.97V7.18zM39.66 7.18v20.15h6.92V15.57s.25-2.35 4.11-2.35c1.39 0 2.11.08 2.11.08V7.18H50.7c-4.11 0-4.11 3.1-4.11 3.1v-3.1zM65.98 6.95c-11.31 0-10.99 9.8-10.99 9.8s-.3 10.58 10.99 10.58c9.78 0 11.15-6.98 11.15-6.98l-7.21-.47s-.06 2.7-3.94 2.7c-3.5 0-3.43-4.2-3.43-4.2h14.58v-3.04s0-8.39-11.15-8.39zm.3 4.72c3.66 0 3.64 3.49 3.64 3.49h-7.3s0-3.49 3.65-3.49zM98.7 14.7l-6.1.63s-.1-2.49-3.94-2.49c-2.99 0-3.07 8.71 0 8.71 3.85 0 3.95-2.05 3.95-2.05l6.1.6c-.05 7.04-7.13 7.2-10.04 7.2 0 0-10.53.17-10.53-10.27 0-10.45 10.53-10.26 10.53-10.26 3.27 0 10.04.19 10.04 7.93zM104.57 2.8l6.3-.53v4.64h4.08v5.39h-4.09v6.89c0 2.55 4.09 2.13 4.09 2.13v5.41l-3.95.48c-6.85.82-6.96-5.27-6.96-5.27V12.3h-4V6.9h4zM138.28 3.06c-3.46-.04-4.29-.22-6.18 3.95 0 0-12.8-2.98-12.8 5.81 0 4.97 2.72 5.53 2.72 5.53s-5.81 2.28-.9 6.13c0 0-3.68-.06-3.49 5.01.18 4.84 11.6 4.28 11.6 4.28s12.05.15 12.05-6.18c0-9.82-16.17-5.05-16.17-7.32 0-2.84 13.2 2.1 13.8-7.38.27-4.16-2.79-4.81-2.79-4.81.41-1.4 3.3-1.02 5.03-.84V3.17c-1.13-.05-2.07-.1-2.87-.11zM129 10.53c1.57 0 2.14.85 2.14 2.25 0 1.54-.48 2.32-2.14 2.32-1.61 0-2.2-.75-2.2-2.32 0-1.38.58-2.25 2.2-2.25zm.2 15.14c2.88.31 5.3.44 5.25 1.86-.03 1.03-2.35 1.87-5.26 1.87-2.9 0-5.26-.84-5.26-1.87 0-1.12-.35-2.46 5.26-1.86z"/><path d="M152.18 6.48a12.05 10.33 0 00-12.05 10.33 12.05 10.33 0 0012.05 10.33 12.05 10.33 0 0012.04-10.33 12.05 10.33 0 00-12.04-10.33zm-.03 5.32a3.17 5 0 01.03 0 3.17 5 0 013.16 5 3.17 5 0 01-3.16 5.01 3.17 5 0 01-3.17-5 3.17 5 0 013.14-5z" paint-order="markers stroke fill"/><path d="M163.62 6.74h7.14l3.9 11.47 3.9-11.47h6.13l-7.26 20.29h-6.12z"/></g></svg>