<svg xmlns="http://www.w3.org/2000/svg" viewBox="0 0 78.79 78.79">
  <defs>
    <radialGradient id="a" cx="82.6" cy="88.05" r="39.39" gradientTransform="matrix(.67742 0 0 .62212 26.64 33.27)" gradientUnits="userSpaceOnUse">
      <stop offset="0" stop-color="#92a5c4"/>
      <stop offset="1" stop-color="#7389b0"/>
    </radialGradient>
  </defs>
  <g transform="translate(-43.2 -48.65)">
    <circle cx="82.6" cy="88.05" r="39.39" fill="url(#a)"/>
    <g fill="#fff" stroke-width=".43" color="#000">
      <path d="M48.91 90.2l2.44-.23q.22 1.23.89 1.8.67.58 1.81.58 1.21 0 1.82-.5.62-.52.62-1.2 0-.45-.26-.75-.25-.32-.9-.55-.44-.15-2-.54-2.02-.5-2.83-1.22-1.14-1.03-1.14-2.5 0-.95.53-1.77.54-.83 1.55-1.26 1.02-.43 2.45-.43 2.33 0 3.5 1.02 1.2 1.03 1.25 2.74l-2.5.1q-.16-.95-.7-1.37-.52-.42-1.58-.42-1.1 0-1.7.45-.4.29-.4.77 0 .44.37.75.47.4 2.3.83t2.7.9q.88.46 1.37 1.26.5.8.5 1.97 0 1.07-.6 2-.59.93-1.67 1.39-1.08.45-2.7.45-2.35 0-3.61-1.09-1.26-1.09-1.51-3.17zM61.1 94.25V81.84h9.2v2.1h-6.7v2.75h6.24v2.09H63.6v3.38h6.93v2.09zM72.73 94.25v-12.3h2.5v10.2h6.23v2.1zM83.25 94.25V81.84h9.2v2.1h-6.7v2.75h6.23v2.09h-6.23v3.38h6.93v2.09zM102.74 89.68l2.43.77q-.56 2.03-1.86 3.02-1.3.99-3.3.99-2.47 0-4.06-1.69-1.59-1.69-1.59-4.62 0-3.1 1.6-4.8 1.6-1.72 4.2-1.72 2.28 0 3.7 1.34.85.8 1.27 2.29l-2.47.6q-.22-.97-.93-1.53-.7-.56-1.69-.56-1.38 0-2.24.99-.86.99-.86 3.2 0 2.36.85 3.36t2.2 1q1 0 1.72-.64.72-.63 1.03-2zM110.11 94.25V83.94h-3.68v-2.1h9.86v2.1h-3.68v10.3z" />
    </g>
  </g>
</svg>