<svg xmlns="http://www.w3.org/2000/svg" fill="currentColor" viewBox="0 0 69.64 37.77"><title>Box Office</title><path d="M37.39 2.8L15.85 13.75l.22.26 6.87 7.97 22.03-11.75zm-.1.65l6.8 6.64L23.06 21.3l-6.37-7.39zm-25.98 10.6L38.44.25l3.8 3.7s-.79.69.13 1.6c.86.86 1.64.17 1.64.17l4.72 4.58-27.78 14.92-3.7-4.3s1-.62.12-1.73c-.81-1.03-1.87-.3-1.87-.3z"/><path d="M38.83 0l2.78 2.7s2.58.04 3.89.8c1.57.9 1.42 2.3 1.42 2.3v2.15l2.53 2.46-2.66 1.44.06 3.8s-.06 1.67-1.26 2.63c-1.61 1.3-5.26 1.21-5.26 1.21h-7.74l-7.07 3.8h24.34V-.02zM17.87 0v10.22l2.77-1.4V5.66c0-1.2 2.85-2.9 6.14-2.9h5.69L37.97 0zM51.49 27.4h2.57v10.13H51.5zM63.19 27.45v10.03h6.45v-1.69h-3.6v-2.45h3.6v-1.92h-3.6v-2.15h3.6v-1.82zM0 27.44V37.5h5.9s2 .01 2-2.76c0-2.2-1.6-2.5-1.6-2.5s1.6-.13 1.6-2.34c0-2.47-2-2.45-2-2.45zm2.69 1.85h1.12s.47 0 .8.33c.31.3.32.83.32.83s.02.34-.3.66c-.3.3-.8.32-.8.32H2.69zm0 3.93h1.12s.48 0 .82.37c.3.35.31.85.31.85s.02.48-.3.84c-.3.34-.8.36-.8.36H2.7zM32.37 27.16c-3.83 0-3.89 2.59-3.89 2.59V35s.08 2.77 3.89 2.77c3.84 0 3.88-2.77 3.88-2.77v-5.25s-.04-2.6-3.88-2.6zm-.04 2.05c1 0 1.02 1.67 1.02 1.67v3.38s-.01 1.78-1.02 1.78c-1 0-1.01-1.78-1.01-1.78v-3.38s.01-1.67 1.01-1.67zM58.7 27.18c-2.34 0-3.22 1.35-3.56 2.58-.21.78-.23 4.36 0 5.23.36 1.3.87 2.75 3.56 2.75 3.54 0 3.57-4 3.57-4h-2.33v.5s0 1.78-1.24 1.78c-1.05 0-1.12-1.77-1.12-1.77v-3.37s.04-1.66 1.12-1.66c1.14 0 1.24 1.76 1.24 1.76h2.33s-.27-3.8-3.57-3.8zM37.17 27.36v10.22h2.76v-4.49h3.47v-1.75h-3.47v-2.12h3.47v-1.86zM44.33 27.36v10.22h2.76v-4.49h3.47v-1.75H47.1v-2.12h3.47v-1.86zM12.62 27.16c-3.83 0-3.89 2.59-3.89 2.59V35s.08 2.77 3.89 2.77c3.84 0 3.88-2.77 3.88-2.77v-5.25s-.04-2.6-3.88-2.6zm-.04 2.05c1 0 1.02 1.67 1.02 1.67v3.38s-.01 1.78-1.02 1.78c-1 0-1.01-1.78-1.01-1.78v-3.38s.01-1.67 1.01-1.67zM17.67 27.48h2.7l1.56 2.46 1.57-2.46h2.92l-2.78 4.82 2.98 5.15H23.5l-1.57-2.97-1.57 2.97h-3.03l2.97-5.15z"/></svg>