<svg xmlns="http://www.w3.org/2000/svg" fill="currentColor" viewBox="0 0 81.32 38.05"><title>Interactive</title><path d="M0 27.71h2.57v10.13H0zM20.36 27.76v10.02h6.45V36.1h-3.6v-2.45h3.6v-1.92h-3.6v-2.15h3.6v-1.82zM27.86 27.74V37.8h2.56v-3.9h1.11c.44 0 .65.28.65.81v3.1h2.9v-3.24c0-.94-.84-1.62-.84-1.62s.85-.31.85-2.39c0-2.83-1.97-2.83-1.97-2.83zm2.44 1.88h1.01s1.09.02 1.09 1.24c0 1.18-1.09 1.17-1.09 1.17H30.3zM49.02 27.5c-2.34 0-3.22 1.34-3.56 2.57-.2.78-.23 4.36 0 5.23.36 1.3.87 2.75 3.56 2.75 3.55 0 3.57-4 3.57-4h-2.33v.5s0 1.78-1.24 1.78c-1.05 0-1.11-1.77-1.11-1.77v-3.37s.03-1.66 1.11-1.66c1.14 0 1.24 1.76 1.24 1.76h2.33s-.27-3.8-3.57-3.8zM61.74 27.71h2.57v10.13h-2.57zM65.35 27.8h2.34l1.9 6.68 1.68-6.67h2.56l-2.66 9.93h-3.14zM74.87 27.76v10.02h6.45V36.1h-3.6v-2.45h3.6v-1.92h-3.6v-2.15h3.6v-1.82zM12.26 27.75h7.06v1.96H16.9v8.09h-2.21V29.7h-2.43zM53.64 27.75h7.06v1.96h-2.43v8.09h-2.21V29.7h-2.43zM38.76 27.73l-2.64 10.1h2.05l.58-2.21h2.86l.6 2.2h2.04l-2.66-10.1zm1.4 1.83l.98 4.15h-1.97zM3.61 27.77v10h2.1v-6.35l3.49 6.36h2.01V27.77H9.2v6.31L5.7 27.77zM20.42 18.89h3.74l8.35-7.75L36 12.58l7.06-10.44-16 6.58 2.9 1.27zM50.9 6.82h-3.69l-7.46 8.04-3.1-.86-4.57 10.82 13.89-8.12-3.1-.96z"/><path d="M23.4 0v14.92l2.27-2.11V6.79c0-1.6 2.1-4.31 6.65-4.31h8.15l3.48-1.34-.37 1.34s8.68.07 8.68 3.36v10.85c0 3.6-10.52 3.47-10.52 3.47l-6.03 3.29h19.13V0zm2.92 18.2l-1.98 1.82h-.93v3.4h8.56l1.37-3.3s-1.8-.23-3.75-.78c-2.04-.56-3.27-1.15-3.27-1.15z"/></svg>