<svg xmlns="http://www.w3.org/2000/svg" fill="currentColor" viewBox="0 0 58.58 40.11"><title>Services</title><path d="M14.3.1l1.74 7.86c.95-.2 2.52.33 2.52-.5 0-1.27-.14-4.68-.77-7.03-.58-.48-2.15-.51-3.5-.32zm1.08 8.3L13.46.26c-.45.1-.82.23-1.06.37-1.5.99-2.9 2.63-2.75 4.33 1.11 10.1 4.9 15.6 10.6 22.15.78.9 3.86.65 5.77.15l-5-7.16c-.36.15-.76.13-1.06-.36-1.6-2.6-3.53-5.26-4.35-8.26-.26-.99-.73-2.22-.23-3.08zm6.17 11.37l5.36 7.45c.28.04.55.07.8-.04.73-.32 2.11-1.05 1.68-1.73-1.58-2.47-3.23-5.18-5.66-7.3-.66-.57-1.4.94-2.06 1.52l-.12.1z"/><path d="M34.16 2.98L19.43 6.93s-.18 1.07-.56 1.4c-.76.68-2.95-.26-2.96.78-.05 3.57 3.9 9.04 4.58 9.99.66.92 1.6-1.75 2.93-1.74 1.11 0 2.9 2.5 2.9 2.5L41.5 15.7zm-.31 1.69l2.22 3.85-2.5.67-2.22-3.83zm-8.11 5.42c.36 0 .58.44.34.72-.33.21-.5.6-.89.71-.37 0-.75.06-1.11-.01a1.33 1.33 0 00-.84.09c-.36.05-.63-.4-.4-.7.32-.35.88-.35 1.33-.27.33 0 .83.19 1-.18.16-.15.33-.35.57-.36zm-4.77 1.13c.32-.01.56.34.41.63-.1.17-.27.28-.38.45-.33.34-.8.03-1.18.1-.15.27-.58.28-.75.02-.22-.31.07-.7.36-.85.26-.08.8-.14.93-.02.04.1.37-.38.61-.33zm5.6.04c.13 0 .25.05.34.15.1.43.54.16.88.29.24.06.53-.19.74.06.27.25.07.75-.3.75-.34.2-.7 0-1.06-.02-.32.09-.7.24-1-.04-.28-.18-.11-.79-.02-.8a.44.44 0 01.43-.39zm-2.14 1.08c.26-.03.46.28.44.5-.06.4-.5.38-.77.43-.33.16-.54.36-.88.48-.34.11-.71.02-1.07.04-.29.05-.75-.12-.92.19-.17.32-.7.26-.8-.08-.1-.38.26-.67.53-.86.52-.21 1.11-.12 1.66-.12.4.1.68-.26 1.02-.4.25-.2.53-.12.79-.18zm2.97 1.52c.29-.01.5.29.42.56-.08.3-.42.32-.66.4-.39-.02-.78-.06-1.17-.06-.34-.06-.56.2-.84.31-.35.1-.66-.34-.47-.64.38-.5 1.06-.57 1.64-.54.37 0 .73.08 1.08-.03zm-4.17.6c.03 0 .06 0 .1.02.35.05.47.57.17.77-.3.11-.5.37-.77.52-.58.34-1.28.16-1.91.2-.35.04-.6-.4-.4-.67.2-.31.63-.19.94-.2.35 0 .75.07 1.03-.17.27-.15.49-.46.84-.46z"/><path d="M43.85 2.3l-9.6.01 1.45 2.52s3.2-.05 4.03 1.61c1.72 3.46 1.33 7.11 1.33 7.11l1.46 2.57-1.27.33s-.16 3.39-2.08 5.3c-2.3 1.37-7.1 1.23-10.64 1.23l1.52 2.26h13.8zm-9.6.01H18.86l.28 2.56h5.56zM12.08 16.64v8.47h5.53s-.7-.82-2.91-3.89a35.94 35.94 0 01-2.62-4.58zM7.85 29.82v10.02h6.45v-1.68h-3.6V35.7h3.6V33.8h-3.6v-2.15h3.6v-1.82zM32.66 29.77h2.57V39.9h-2.57zM44.29 29.82v10.02h6.45v-1.68h-3.6V35.7h3.6V33.8h-3.6v-2.15h3.6v-1.82zM39.83 29.55c-2.34 0-3.22 1.35-3.56 2.58-.2.78-.23 4.36 0 5.22.36 1.31.87 2.76 3.56 2.76 3.55 0 3.57-4 3.57-4h-2.33v.5s0 1.78-1.24 1.78c-1.05 0-1.11-1.77-1.11-1.77v-3.37s.03-1.66 1.11-1.66c1.14 0 1.24 1.75 1.24 1.75h2.33s-.27-3.79-3.57-3.79zM4.42 32.87h2.55v-1.78s-.07-1.5-3.53-1.5S0 31.1 0 31.1v2.47c0 .46 4.42 2.46 4.42 2.92v.88s0 .93-.98.93c-1 0-.98-.93-.98-.93v-.88H.1v2.26s0 1.33 3.34 1.33c3.43 0 3.46-1.34 3.46-1.34v-3.1c0-.32-4.44-2.45-4.44-2.76v-.59s.03-.48.98-.48c.91 0 .98.47.98.47zM15.19 29.8v10.07h2.56v-3.9h1.11c.44 0 .65.28.65.81v3.1h2.9v-3.24c0-.94-.84-1.62-.84-1.62s.85-.31.85-2.39c0-2.83-1.97-2.83-1.97-2.83zm2.44 1.88h1.01s1.09.02 1.09 1.24c0 1.18-1.09 1.17-1.09 1.17h-1.01zM23.3 29.87h2.34l1.9 6.67 1.68-6.67h2.56l-2.66 9.93h-3.14zM56.04 32.87h2.55v-1.78s-.07-1.5-3.53-1.5-3.44 1.5-3.44 1.5v2.47c0 .46 4.42 2.46 4.42 2.92v.88s0 .93-.98.93c-1 0-.98-.93-.98-.93v-.88h-2.36v2.26s0 1.33 3.34 1.33c3.43 0 3.46-1.34 3.46-1.34v-3.1c0-.32-4.44-2.45-4.44-2.76v-.59s.03-.48.98-.48c.91 0 .98.47.98.47z"/></svg>